<svg id="chart" xmlns="http://www.w3.org/2000/svg" xmlns:xlink="http://www.w3.org/1999/xlink" width="900" height="900"><g transform="translate(310, 20)"><style>
      #chart {
        background-color: antiquewhite;
      }
      .title {
        font-size: 24px;
        font-weight: bold;
        font-family: 'Roboto Condensed', sans-serif;
      }
      .ctg-title {
        font-size: 16px;
        font-weight: bold;
        font-family: 'Roboto Condensed', sans-serif;
      }
      .y.axis text {
        font-size: 16px;
        font-weight: normal;
        font-family: 'Roboto Condensed', sans-serif;
      }
      .perc {
        font-size: 16px;
        font-weight: normal;
        font-family: 'Roboto Condensed', sans-serif;
      }
      .link {
        font-size: 14px;
        font-weight: bold;
        font-family: 'Roboto Condensed', sans-serif;
      }
      .curlyBrace {
        stroke: #000000;
        stroke-width: 10px;
        fill: none;
      }

      .domain {
        opacity: 0;
      }
    </style><text transform="translate(0, 5)" text-anchor="left" fill="#386cb0" class="title">Most Used JavaScript Libraries (percentage) - June 2022</text><text transform="translate(-240, 106.5) rotate(-45)" fill="#08306b" class="ctg-title" style="text-anchor: end;">Utils</text><path d="M -210 15 Q -222 15 -218 60.75 T -230 106.5 M -210 198 Q -222 198 -218 152.25 T -230 106.5" style="stroke: rgb(8, 48, 107); fill: none;"></path><g transform="translate(0, 15)"><g class="y axis" fill="none" font-size="10" font-family="sans-serif" text-anchor="end"><path class="domain" stroke="currentColor" d="M0.5,183.5V0.5"></path><g class="tick" opacity="1" transform="translate(0,172.5)"><line stroke="currentColor" x2="0"></line><text fill="#08306b" x="-3" dy="0.32em" dx="-.8em" transform="rotate(0)" style="text-anchor: end;">Cloudflare Email Decode</text></g><g class="tick" opacity="1" transform="translate(0,152.5)"><line stroke="currentColor" x2="0"></line><text fill="#08306b" x="-3" dy="0.32em" dx="-.8em" transform="rotate(0)" style="text-anchor: end;">Underscore</text></g><g class="tick" opacity="1" transform="translate(0,132.5)"><line stroke="currentColor" x2="0"></line><text fill="#08306b" x="-3" dy="0.32em" dx="-.8em" transform="rotate(0)" style="text-anchor: end;">i18n</text></g><g class="tick" opacity="1" transform="translate(0,112.5)"><line stroke="currentColor" x2="0"></line><text fill="#08306b" x="-3" dy="0.32em" dx="-.8em" transform="rotate(0)" style="text-anchor: end;">Owl Carousel</text></g><g class="tick" opacity="1" transform="translate(0,92.5)"><line stroke="currentColor" x2="0"></line><text fill="#08306b" x="-3" dy="0.32em" dx="-.8em" transform="rotate(0)" style="text-anchor: end;">Modernizr</text></g><g class="tick" opacity="1" transform="translate(0,72.5)"><line stroke="currentColor" x2="0"></line><text fill="#08306b" x="-3" dy="0.32em" dx="-.8em" transform="rotate(0)" style="text-anchor: end;">slick</text></g><g class="tick" opacity="1" transform="translate(0,52.5)"><line stroke="currentColor" x2="0"></line><text fill="#08306b" x="-3" dy="0.32em" dx="-.8em" transform="rotate(0)" style="text-anchor: end;">Google reCAPTCHA</text></g><g class="tick" opacity="1" transform="translate(0,32.5)"><line stroke="currentColor" x2="0"></line><text fill="#08306b" x="-3" dy="0.32em" dx="-.8em" transform="rotate(0)" style="text-anchor: end;">jQuery Migrate</text></g><g class="tick" opacity="1" transform="translate(0,12.5)"><line stroke="currentColor" x2="0"></line><text fill="#08306b" x="-3" dy="0.32em" dx="-.8em" transform="rotate(0)" style="text-anchor: end;">jQuery</text></g></g><g><rect class="bar" y="163" height="18" x="0" width="38.604491685239154" fill="#f7fbff"></rect><text class="perc" fill="#08306b" y="172" x="45.604491685239154" style="alignment-baseline: central;">4.17</text></g><g><rect class="bar" y="143" height="18" x="0" width="43.788787930738906" fill="#deebf7"></rect><text class="perc" fill="#08306b" y="152" x="50.788787930738906" style="alignment-baseline: central;">4.73</text></g><g><rect class="bar" y="123" height="18" x="0" width="44.62197839876565" fill="#c6dbef"></rect><text class="perc" fill="#08306b" y="132" x="51.62197839876565" style="alignment-baseline: central;">4.82</text></g><g><rect class="bar" y="103" height="18" x="0" width="45.08486199211384" fill="#9ecae1"></rect><text class="perc" fill="#08306b" y="112" x="52.08486199211384" style="alignment-baseline: central;">4.87</text></g><g><rect class="bar" y="83" height="18" x="0" width="46.01062917881022" fill="#6baed6"></rect><text class="perc" fill="#08306b" y="92" x="53.01062917881022" style="alignment-baseline: central;">4.97</text></g><g><rect class="bar" y="63" height="18" x="0" width="56.194068232470435" fill="#4292c6"></rect><text class="perc" fill="#08306b" y="72" x="63.194068232470435" style="alignment-baseline: central;">6.07</text></g><g><rect class="bar" y="43" height="18" x="0" width="70.54345962626437" fill="#2171b5"></rect><text class="perc" fill="#08306b" y="52" x="77.54345962626437" style="alignment-baseline: central;">7.62</text></g><g><rect class="bar" y="23" height="18" x="0" width="266.9912566432368" fill="#08519c"></rect><text class="perc" fill="#08306b" y="32" x="273.9912566432368" style="alignment-baseline: central;">28.84</text></g><g><rect class="bar" y="3" height="18" x="0" width="540" fill="#08306b"></rect><text class="perc" fill="#08306b" y="12" x="547" style="alignment-baseline: central;">58.33</text></g></g><text transform="translate(-240, 243.5) rotate(-45)" fill="#31a354" class="ctg-title" style="text-anchor: end;">Analytics</text><path d="M -210 213 Q -222 213 -218 228.25 T -230 243.5 M -210 274 Q -222 274 -218 258.75 T -230 243.5" style="stroke: rgb(49, 163, 84); fill: none;"></path><g transform="translate(0, 213)"><g class="y axis" fill="none" font-size="10" font-family="sans-serif" text-anchor="end"><path class="domain" stroke="currentColor" d="M0.5,61.5V0.5"></path><g class="tick" opacity="1" transform="translate(0,49.5)"><line stroke="currentColor" x2="0"></line><text fill="#31a354" x="-3" dy="0.32em" dx="-.8em" transform="rotate(0)" style="text-anchor: end;">Cloudflare Insights</text></g><g class="tick" opacity="1" transform="translate(0,30.5)"><line stroke="currentColor" x2="0"></line><text fill="#31a354" x="-3" dy="0.32em" dx="-.8em" transform="rotate(0)" style="text-anchor: end;">WordPress Stats and Insights</text></g><g class="tick" opacity="1" transform="translate(0,11.5)"><line stroke="currentColor" x2="0"></line><text fill="#31a354" x="-3" dy="0.32em" dx="-.8em" transform="rotate(0)" style="text-anchor: end;">Google Analytics</text></g></g><g><rect class="bar" y="41" height="17" x="0" width="15.367735299159953" fill="#e5f5e0"></rect><text class="perc" fill="#31a354" y="49.5" x="22.367735299159953" style="alignment-baseline: central;">1.66</text></g><g><rect class="bar" y="22" height="17" x="0" width="38.789645122578435" fill="#a1d99b"></rect><text class="perc" fill="#31a354" y="30.5" x="45.789645122578435" style="alignment-baseline: central;">4.19</text></g><g><rect class="bar" y="3" height="17" x="0" width="246.25407166123782" fill="#31a354"></rect><text class="perc" fill="#31a354" y="11.5" x="253.25407166123782" style="alignment-baseline: central;">26.6</text></g></g><text transform="translate(-240, 350) rotate(-45)" fill="#a63603" class="ctg-title" style="text-anchor: end;">CMS</text><path d="M -210 289 Q -222 289 -218 319.5 T -230 350 M -210 411 Q -222 411 -218 380.5 T -230 350" style="stroke: rgb(166, 54, 3); fill: none;"></path><g transform="translate(0, 289)"><g class="y axis" fill="none" font-size="10" font-family="sans-serif" text-anchor="end"><path class="domain" stroke="currentColor" d="M0.5,122.5V0.5"></path><g class="tick" opacity="1" transform="translate(0,111.5)"><line stroke="currentColor" x2="0"></line><text fill="#a63603" x="-3" dy="0.32em" dx="-.8em" transform="rotate(0)" style="text-anchor: end;">WordPress Utilities</text></g><g class="tick" opacity="1" transform="translate(0,91.5)"><line stroke="currentColor" x2="0"></line><text fill="#a63603" x="-3" dy="0.32em" dx="-.8em" transform="rotate(0)" style="text-anchor: end;">WordPress Slider Revolution</text></g><g class="tick" opacity="1" transform="translate(0,71.5)"><line stroke="currentColor" x2="0"></line><text fill="#a63603" x="-3" dy="0.32em" dx="-.8em" transform="rotate(0)" style="text-anchor: end;">WordPress WooCommerce</text></g><g class="tick" opacity="1" transform="translate(0,51.5)"><line stroke="currentColor" x2="0"></line><text fill="#a63603" x="-3" dy="0.32em" dx="-.8em" transform="rotate(0)" style="text-anchor: end;">WordPress Elementor</text></g><g class="tick" opacity="1" transform="translate(0,31.5)"><line stroke="currentColor" x2="0"></line><text fill="#a63603" x="-3" dy="0.32em" dx="-.8em" transform="rotate(0)" style="text-anchor: end;">WordPress Contact Form 7</text></g><g class="tick" opacity="1" transform="translate(0,11.5)"><line stroke="currentColor" x2="0"></line><text fill="#a63603" x="-3" dy="0.32em" dx="-.8em" transform="rotate(0)" style="text-anchor: end;">WordPress Core</text></g></g><g><rect class="bar" y="102" height="18" x="0" width="20.737184981998972" fill="#feedde"></rect><text class="perc" fill="#a63603" y="111" x="27.737184981998972" style="alignment-baseline: central;">2.24</text></g><g><rect class="bar" y="82" height="18" x="0" width="30.087433567632438" fill="#fdd0a2"></rect><text class="perc" fill="#a63603" y="91" x="37.08743356763244" style="alignment-baseline: central;">3.25</text></g><g><rect class="bar" y="62" height="18" x="0" width="34.43853934510543" fill="#fdae6b"></rect><text class="perc" fill="#a63603" y="71" x="41.43853934510543" style="alignment-baseline: central;">3.72</text></g><g><rect class="bar" y="42" height="18" x="0" width="58.7862163552203" fill="#fd8d3c"></rect><text class="perc" fill="#a63603" y="51" x="65.78621635522029" style="alignment-baseline: central;">6.35</text></g><g><rect class="bar" y="22" height="18" x="0" width="88.22561289216526" fill="#e6550d"></rect><text class="perc" fill="#a63603" y="31" x="95.22561289216526" style="alignment-baseline: central;">9.53</text></g><g><rect class="bar" y="2" height="18" x="0" width="193.57791873821364" fill="#a63603"></rect><text class="perc" fill="#a63603" y="11" x="200.57791873821364" style="alignment-baseline: central;">20.91</text></g></g><text transform="translate(-240, 517.5) rotate(-45)" fill="#3f007d" class="ctg-title" style="text-anchor: end;">UI Widgets</text><path d="M -210 426 Q -222 426 -218 471.75 T -230 517.5 M -210 609 Q -222 609 -218 563.25 T -230 517.5" style="stroke: rgb(63, 0, 125); fill: none;"></path><g transform="translate(0, 426)"><g class="y axis" fill="none" font-size="10" font-family="sans-serif" text-anchor="end"><path class="domain" stroke="currentColor" d="M0.5,183.5V0.5"></path><g class="tick" opacity="1" transform="translate(0,172.5)"><line stroke="currentColor" x2="0"></line><text fill="#3f007d" x="-3" dy="0.32em" dx="-.8em" transform="rotate(0)" style="text-anchor: end;">jQuery Fancybox</text></g><g class="tick" opacity="1" transform="translate(0,152.5)"><line stroke="currentColor" x2="0"></line><text fill="#3f007d" x="-3" dy="0.32em" dx="-.8em" transform="rotate(0)" style="text-anchor: end;">jQuery Magnific Popup</text></g><g class="tick" opacity="1" transform="translate(0,132.5)"><line stroke="currentColor" x2="0"></line><text fill="#3f007d" x="-3" dy="0.32em" dx="-.8em" transform="rotate(0)" style="text-anchor: end;">jQuery FlexSlider</text></g><g class="tick" opacity="1" transform="translate(0,112.5)"><line stroke="currentColor" x2="0"></line><text fill="#3f007d" x="-3" dy="0.32em" dx="-.8em" transform="rotate(0)" style="text-anchor: end;">Google Maps</text></g><g class="tick" opacity="1" transform="translate(0,92.5)"><line stroke="currentColor" x2="0"></line><text fill="#3f007d" x="-3" dy="0.32em" dx="-.8em" transform="rotate(0)" style="text-anchor: end;">Popper</text></g><g class="tick" opacity="1" transform="translate(0,72.5)"><line stroke="currentColor" x2="0"></line><text fill="#3f007d" x="-3" dy="0.32em" dx="-.8em" transform="rotate(0)" style="text-anchor: end;">jQuery FitVids</text></g><g class="tick" opacity="1" transform="translate(0,52.5)"><line stroke="currentColor" x2="0"></line><text fill="#3f007d" x="-3" dy="0.32em" dx="-.8em" transform="rotate(0)" style="text-anchor: end;">imagesLoaded</text></g><g class="tick" opacity="1" transform="translate(0,32.5)"><line stroke="currentColor" x2="0"></line><text fill="#3f007d" x="-3" dy="0.32em" dx="-.8em" transform="rotate(0)" style="text-anchor: end;">Bootstrap</text></g><g class="tick" opacity="1" transform="translate(0,12.5)"><line stroke="currentColor" x2="0"></line><text fill="#3f007d" x="-3" dy="0.32em" dx="-.8em" transform="rotate(0)" style="text-anchor: end;">jQuery UI</text></g></g><g><rect class="bar" y="163" height="18" x="0" width="19.533687639293674" fill="#fcfbfd"></rect><text class="perc" fill="#3f007d" y="172" x="26.533687639293674" style="alignment-baseline: central;">2.11</text></g><g><rect class="bar" y="143" height="18" x="0" width="21.200068575347164" fill="#efedf5"></rect><text class="perc" fill="#3f007d" y="152" x="28.200068575347164" style="alignment-baseline: central;">2.29</text></g><g><rect class="bar" y="123" height="18" x="0" width="23.607063260757755" fill="#dadaeb"></rect><text class="perc" fill="#3f007d" y="132" x="30.607063260757755" style="alignment-baseline: central;">2.55</text></g><g><rect class="bar" y="103" height="18" x="0" width="24.810560603463056" fill="#bcbddc"></rect><text class="perc" fill="#3f007d" y="112" x="31.810560603463056" style="alignment-baseline: central;">2.68</text></g><g><rect class="bar" y="83" height="18" x="0" width="25.088290759471967" fill="#9e9ac8"></rect><text class="perc" fill="#3f007d" y="92" x="32.08829075947197" style="alignment-baseline: central;">2.71</text></g><g><rect class="bar" y="63" height="18" x="0" width="25.458597634150525" fill="#807dba"></rect><text class="perc" fill="#3f007d" y="72" x="32.45859763415052" style="alignment-baseline: central;">2.75</text></g><g><rect class="bar" y="43" height="18" x="0" width="57.76787244985428" fill="#6a51a3"></rect><text class="perc" fill="#3f007d" y="52" x="64.76787244985428" style="alignment-baseline: central;">6.24</text></g><g><rect class="bar" y="23" height="18" x="0" width="125.62660723469912" fill="#54278f"></rect><text class="perc" fill="#3f007d" y="32" x="132.62660723469912" style="alignment-baseline: central;">13.57</text></g><g><rect class="bar" y="3" height="18" x="0" width="127.01525801474371" fill="#3f007d"></rect><text class="perc" fill="#3f007d" y="12" x="134.01525801474372" style="alignment-baseline: central;">13.72</text></g></g><text transform="translate(-240, 644) rotate(-45)" fill="#636363" class="ctg-title" style="text-anchor: end;">Advertising</text><path d="M -210 624 Q -222 624 -218 634 T -230 644 M -210 664 Q -222 664 -218 654 T -230 644" style="stroke: rgb(99, 99, 99); fill: none;"></path><g transform="translate(0, 624)"><g class="y axis" fill="none" font-size="10" font-family="sans-serif" text-anchor="end"><path class="domain" stroke="currentColor" d="M0.5,40.5V0.5"></path><g class="tick" opacity="1" transform="translate(0,29.5)"><line stroke="currentColor" x2="0"></line><text fill="#636363" x="-3" dy="0.32em" dx="-.8em" transform="rotate(0)" style="text-anchor: end;">Google Publisher Tags</text></g><g class="tick" opacity="1" transform="translate(0,10.5)"><line stroke="currentColor" x2="0"></line><text fill="#636363" x="-3" dy="0.32em" dx="-.8em" transform="rotate(0)" style="text-anchor: end;">Google Adsense</text></g></g><g><rect class="bar" y="21" height="17" x="0" width="19.996571232641866" fill="#f0f0f0"></rect><text class="perc" fill="#636363" y="29.5" x="26.996571232641866" style="alignment-baseline: central;">2.16</text></g><g><rect class="bar" y="2" height="17" x="0" width="68.2290416595234" fill="#bdbdbd"></rect><text class="perc" fill="#636363" y="10.5" x="75.2290416595234" style="alignment-baseline: central;">7.37</text></g></g><text transform="translate(-240, 719.5) rotate(-45)" fill="#cb181d" class="ctg-title" style="text-anchor: end;">Cookies</text><path d="M -210 679 Q -222 679 -218 699.25 T -230 719.5 M -210 760 Q -222 760 -218 739.75 T -230 719.5" style="stroke: rgb(203, 24, 29); fill: none;"></path><g transform="translate(0, 679)"><g class="y axis" fill="none" font-size="10" font-family="sans-serif" text-anchor="end"><path class="domain" stroke="currentColor" d="M0.5,81.5V0.5"></path><g class="tick" opacity="1" transform="translate(0,68.5)"><line stroke="currentColor" x2="0"></line><text fill="#cb181d" x="-3" dy="0.32em" dx="-.8em" transform="rotate(0)" style="text-anchor: end;">OneTrust Cookies Consent</text></g><g class="tick" opacity="1" transform="translate(0,49.5)"><line stroke="currentColor" x2="0"></line><text fill="#cb181d" x="-3" dy="0.32em" dx="-.8em" transform="rotate(0)" style="text-anchor: end;">JavaScript Cookie</text></g><g class="tick" opacity="1" transform="translate(0,30.5)"><line stroke="currentColor" x2="0"></line><text fill="#cb181d" x="-3" dy="0.32em" dx="-.8em" transform="rotate(0)" style="text-anchor: end;">Cookie Consent</text></g><g class="tick" opacity="1" transform="translate(0,11.5)"><line stroke="currentColor" x2="0"></line><text fill="#cb181d" x="-3" dy="0.32em" dx="-.8em" transform="rotate(0)" style="text-anchor: end;">jQuery Cookie</text></g></g><g><rect class="bar" y="60" height="17" x="0" width="12.220126864392252" fill="#fee5d9"></rect><text class="perc" fill="#cb181d" y="68.5" x="19.220126864392252" style="alignment-baseline: central;">1.32</text></g><g><rect class="bar" y="41" height="17" x="0" width="12.868163895079718" fill="#fcae91"></rect><text class="perc" fill="#cb181d" y="49.5" x="19.868163895079718" style="alignment-baseline: central;">1.39</text></g><g><rect class="bar" y="22" height="17" x="0" width="13.331047488427911" fill="#fb6a4a"></rect><text class="perc" fill="#cb181d" y="30.5" x="20.331047488427913" style="alignment-baseline: central;">1.44</text></g><g><rect class="bar" y="3" height="17" x="0" width="21.200068575347164" fill="#cb181d"></rect><text class="perc" fill="#cb181d" y="11.5" x="28.200068575347164" style="alignment-baseline: central;">2.29</text></g></g><text transform="translate(-240, 805.5) rotate(-45)" fill="#2ca25f" class="ctg-title" style="text-anchor: end;">Optimization</text><path d="M -210 775 Q -222 775 -218 790.25 T -230 805.5 M -210 836 Q -222 836 -218 820.75 T -230 805.5" style="stroke: rgb(44, 162, 95); fill: none;"></path><g transform="translate(0, 775)"><g class="y axis" fill="none" font-size="10" font-family="sans-serif" text-anchor="end"><path class="domain" stroke="currentColor" d="M0.5,61.5V0.5"></path><g class="tick" opacity="1" transform="translate(0,49.5)"><line stroke="currentColor" x2="0"></line><text fill="#2ca25f" x="-3" dy="0.32em" dx="-.8em" transform="rotate(0)" style="text-anchor: end;">LazySizes</text></g><g class="tick" opacity="1" transform="translate(0,30.5)"><line stroke="currentColor" x2="0"></line><text fill="#2ca25f" x="-3" dy="0.32em" dx="-.8em" transform="rotate(0)" style="text-anchor: end;">WordPress Autoptimize</text></g><g class="tick" opacity="1" transform="translate(0,11.5)"><line stroke="currentColor" x2="0"></line><text fill="#2ca25f" x="-3" dy="0.32em" dx="-.8em" transform="rotate(0)" style="text-anchor: end;">Cloudflare Rocket Loader</text></g></g><g><rect class="bar" y="41" height="17" x="0" width="15.090005143151037" fill="#e5f5f9"></rect><text class="perc" fill="#2ca25f" y="49.5" x="22.09000514315104" style="alignment-baseline: central;">1.63</text></g><g><rect class="bar" y="22" height="17" x="0" width="16.941539516543802" fill="#99d8c9"></rect><text class="perc" fill="#2ca25f" y="30.5" x="23.941539516543802" style="alignment-baseline: central;">1.83</text></g><g><rect class="bar" y="3" height="17" x="0" width="17.034116235213443" fill="#2ca25f"></rect><text class="perc" fill="#2ca25f" y="11.5" x="24.034116235213443" style="alignment-baseline: central;">1.84</text></g></g></g></svg>